<svg width="16" height="16" viewBox="0 0 16 16" fill="none" xmlns="http://www.w3.org/2000/svg">
<path d="M9.80056 1.4668H10.8006C11.5339 1.4668 12.1339 2.0668 12.1339 2.80013V7.0668L9.80056 1.4668ZM13.4006 2.53346L14.2672 2.93346C14.9339 3.20013 15.2672 4.00013 15.0006 4.6668L13.4006 8.60013V2.53346ZM12.0006 10.3335L8.66723 2.33346C8.46723 1.80013 8.00056 1.53346 7.46723 1.53346C7.26723 1.53346 7.13389 1.60013 6.93389 1.6668L2.00056 3.6668C1.33389 3.93346 1.00056 4.6668 1.33389 5.33346L4.66723 13.3335C4.86723 13.8668 5.33389 14.1335 5.86723 14.1335C6.06723 14.1335 6.20056 14.1335 6.40056 14.0001L11.3339 12.0001C11.8672 11.8001 12.1339 11.3335 12.1339 10.8001C12.0672 10.6668 12.0672 10.4668 12.0006 10.3335ZM7.60056 10.0001L5.46723 8.40013L5.73389 5.73346L7.86723 7.33346L7.60056 10.0001Z" fill="#B7BECC"/>
<path d="M9.80056 1.4668H10.8006C11.5339 1.4668 12.1339 2.0668 12.1339 2.80013V7.0668L9.80056 1.4668ZM13.4006 2.53346L14.2672 2.93346C14.9339 3.20013 15.2672 4.00013 15.0006 4.6668L13.4006 8.60013V2.53346ZM12.0006 10.3335L8.66723 2.33346C8.46723 1.80013 8.00056 1.53346 7.46723 1.53346C7.26723 1.53346 7.13389 1.60013 6.93389 1.6668L2.00056 3.6668C1.33389 3.93346 1.00056 4.6668 1.33389 5.33346L4.66723 13.3335C4.86723 13.8668 5.33389 14.1335 5.86723 14.1335C6.06723 14.1335 6.20056 14.1335 6.40056 14.0001L11.3339 12.0001C11.8672 11.8001 12.1339 11.3335 12.1339 10.8001C12.0672 10.6668 12.0672 10.4668 12.0006 10.3335ZM7.60056 10.0001L5.46723 8.40013L5.73389 5.73346L7.86723 7.33346L7.60056 10.0001Z" fill="url(#paint0_linear_3153_2032)"/>
<path d="M9.80056 1.4668H10.8006C11.5339 1.4668 12.1339 2.0668 12.1339 2.80013V7.0668L9.80056 1.4668ZM13.4006 2.53346L14.2672 2.93346C14.9339 3.20013 15.2672 4.00013 15.0006 4.6668L13.4006 8.60013V2.53346ZM12.0006 10.3335L8.66723 2.33346C8.46723 1.80013 8.00056 1.53346 7.46723 1.53346C7.26723 1.53346 7.13389 1.60013 6.93389 1.6668L2.00056 3.6668C1.33389 3.93346 1.00056 4.6668 1.33389 5.33346L4.66723 13.3335C4.86723 13.8668 5.33389 14.1335 5.86723 14.1335C6.06723 14.1335 6.20056 14.1335 6.40056 14.0001L11.3339 12.0001C11.8672 11.8001 12.1339 11.3335 12.1339 10.8001C12.0672 10.6668 12.0672 10.4668 12.0006 10.3335ZM7.60056 10.0001L5.46723 8.40013L5.73389 5.73346L7.86723 7.33346L7.60056 10.0001Z" fill="#D00927"/>
<defs>
<linearGradient id="paint0_linear_3153_2032" x1="8.14787" y1="1.4668" x2="8.14787" y2="14.1335" gradientUnits="userSpaceOnUse">
<stop offset="0.331731"/>
<stop offset="1" stop-color="#FFCE56"/>
</linearGradient>
</defs>
</svg>
