<svg width="50" height="50" viewBox="0 0 50 50" fill="none" xmlns="http://www.w3.org/2000/svg">
<path d="M24.6831 6.86667C23.2773 6.1382 21.7256 5.72386 20.1384 5.65318C18.5513 5.58251 16.9679 5.85723 15.501 6.45778C15.2975 6.54311 15.109 6.61718 14.9356 6.68C14.7121 6.75866 14.4749 6.79318 14.2378 6.78159C14.0007 6.77 13.7682 6.71252 13.5537 6.61244C13.3443 6.13367 12.9969 5.72577 12.5545 5.4392C12.1121 5.15263 11.5941 4.99993 11.0645 5H9.70963C8.99099 5 8.30179 5.28095 7.79363 5.78105C7.28548 6.28115 7 6.95942 7 7.66667V18.3333C7 19.0406 7.28548 19.7189 7.79363 20.2189C8.30179 20.719 8.99099 21 9.70963 21H11.0645C11.7831 21 12.4723 20.719 12.9805 20.2189C13.4886 19.7189 13.7741 19.0406 13.7741 18.3333V17.8533C13.7744 17.2643 13.9729 16.6919 14.3386 16.2256C14.7043 15.7592 15.2166 15.4252 15.7955 15.2756C17.8562 14.6346 20.0858 14.7741 22.0475 15.6667C24.5042 17.1813 27.4559 18.344 29.9958 17.0533L32.7361 15.6667C24.0544 24.2107 18.9188 31.8444 17.9849 42.0915C17.9507 42.4611 17.9952 42.8335 18.1157 43.1852C18.2361 43.5368 18.4298 43.8598 18.6843 44.1335C18.9388 44.4073 19.2486 44.6257 19.5938 44.7749C19.939 44.9241 20.312 45.0008 20.6891 45H30.1041C30.8107 44.998 31.4886 44.7253 31.9944 44.2398C32.5002 43.7543 32.7941 43.0942 32.8138 42.3991C33.0631 33.6276 33.6032 28.648 42.7075 10.7547C42.9648 10.251 43.0555 9.68085 42.9671 9.12394C42.8786 8.56704 42.6155 8.05128 42.2144 7.64889L41.089 6.53956C40.6364 6.10203 40.0436 5.83271 39.4117 5.77759C38.7797 5.72247 38.148 5.88497 37.6243 6.23733C35.721 7.47045 33.5168 8.17921 31.2409 8.28989C28.965 8.40056 26.7006 7.90912 24.6831 6.86667Z" stroke="white" stroke-width="2" stroke-linecap="round" stroke-linejoin="round"/>
</svg>
