<svg width="16" height="14" viewBox="0 0 16 14" fill="none" xmlns="http://www.w3.org/2000/svg">
<path d="M6.42578 2.44336C5.87891 0.693359 4.21094 -0.263672 2.35156 0.0644531L1.53125 0.228516C1.3125 0.255859 1.17578 0.474609 1.20312 0.693359L1.36719 1.51367C1.72266 3.50977 3.47266 4.79492 5.46875 4.43945L6.42578 2.44336ZM7.82031 0.310547C8.03906 0.283203 8.25781 0.392578 8.39453 0.556641L12.2227 5.58789C12.3594 5.56055 12.5234 5.56055 12.6875 5.56055C14.3828 5.56055 15.75 6.92773 15.75 8.62305C15.75 11.2754 13.3984 13.4355 10.5 13.4355C10.1445 13.4355 9.78906 13.4082 9.43359 13.3262C10.8828 12.2324 11.8125 10.5645 11.8125 8.62305C11.8125 7.85742 11.6211 7.14648 11.293 6.51758L8.01172 2.22461L6.28906 5.7793C6.64453 5.64258 7.02734 5.56055 7.4375 5.56055C9.13281 5.56055 10.5 6.92773 10.5 8.62305C10.5 11.2754 8.14844 13.4355 5.25 13.4355C2.35156 13.4355 0 11.2754 0 8.62305C0 6.92773 1.36719 5.56055 3.0625 5.56055C3.66406 5.56055 4.23828 5.72461 4.70312 6.02539L7.27344 0.666016C7.38281 0.474609 7.57422 0.337891 7.82031 0.310547Z" fill="#B7BECC"/>
<path d="M6.42578 2.44336C5.87891 0.693359 4.21094 -0.263672 2.35156 0.0644531L1.53125 0.228516C1.3125 0.255859 1.17578 0.474609 1.20312 0.693359L1.36719 1.51367C1.72266 3.50977 3.47266 4.79492 5.46875 4.43945L6.42578 2.44336ZM7.82031 0.310547C8.03906 0.283203 8.25781 0.392578 8.39453 0.556641L12.2227 5.58789C12.3594 5.56055 12.5234 5.56055 12.6875 5.56055C14.3828 5.56055 15.75 6.92773 15.75 8.62305C15.75 11.2754 13.3984 13.4355 10.5 13.4355C10.1445 13.4355 9.78906 13.4082 9.43359 13.3262C10.8828 12.2324 11.8125 10.5645 11.8125 8.62305C11.8125 7.85742 11.6211 7.14648 11.293 6.51758L8.01172 2.22461L6.28906 5.7793C6.64453 5.64258 7.02734 5.56055 7.4375 5.56055C9.13281 5.56055 10.5 6.92773 10.5 8.62305C10.5 11.2754 8.14844 13.4355 5.25 13.4355C2.35156 13.4355 0 11.2754 0 8.62305C0 6.92773 1.36719 5.56055 3.0625 5.56055C3.66406 5.56055 4.23828 5.72461 4.70312 6.02539L7.27344 0.666016C7.38281 0.474609 7.57422 0.337891 7.82031 0.310547Z" fill="url(#paint0_linear_3153_2028)"/>
<path d="M6.42578 2.44336C5.87891 0.693359 4.21094 -0.263672 2.35156 0.0644531L1.53125 0.228516C1.3125 0.255859 1.17578 0.474609 1.20312 0.693359L1.36719 1.51367C1.72266 3.50977 3.47266 4.79492 5.46875 4.43945L6.42578 2.44336ZM7.82031 0.310547C8.03906 0.283203 8.25781 0.392578 8.39453 0.556641L12.2227 5.58789C12.3594 5.56055 12.5234 5.56055 12.6875 5.56055C14.3828 5.56055 15.75 6.92773 15.75 8.62305C15.75 11.2754 13.3984 13.4355 10.5 13.4355C10.1445 13.4355 9.78906 13.4082 9.43359 13.3262C10.8828 12.2324 11.8125 10.5645 11.8125 8.62305C11.8125 7.85742 11.6211 7.14648 11.293 6.51758L8.01172 2.22461L6.28906 5.7793C6.64453 5.64258 7.02734 5.56055 7.4375 5.56055C9.13281 5.56055 10.5 6.92773 10.5 8.62305C10.5 11.2754 8.14844 13.4355 5.25 13.4355C2.35156 13.4355 0 11.2754 0 8.62305C0 6.92773 1.36719 5.56055 3.0625 5.56055C3.66406 5.56055 4.23828 5.72461 4.70312 6.02539L7.27344 0.666016C7.38281 0.474609 7.57422 0.337891 7.82031 0.310547Z" fill="#D00927"/>
<defs>
<linearGradient id="paint0_linear_3153_2028" x1="7.875" y1="13.4355" x2="7.875" y2="0.000556946" gradientUnits="userSpaceOnUse">
<stop stop-color="#FFCE56"/>
<stop offset="0.668269"/>
</linearGradient>
</defs>
</svg>
