<svg width="20" height="20" viewBox="0 0 20 20" fill="none" xmlns="http://www.w3.org/2000/svg">
<path d="M9.99967 11.1663L5.91634 15.2497C5.76356 15.4025 5.56912 15.4788 5.33301 15.4788C5.0969 15.4788 4.90245 15.4025 4.74967 15.2497C4.5969 15.0969 4.52051 14.9025 4.52051 14.6663C4.52051 14.4302 4.5969 14.2358 4.74967 14.083L8.83301 9.99967L4.74967 5.91634C4.5969 5.76356 4.52051 5.56912 4.52051 5.33301C4.52051 5.0969 4.5969 4.90245 4.74967 4.74967C4.90245 4.5969 5.0969 4.52051 5.33301 4.52051C5.56912 4.52051 5.76356 4.5969 5.91634 4.74967L9.99967 8.83301L14.083 4.74967C14.2358 4.5969 14.4302 4.52051 14.6663 4.52051C14.9025 4.52051 15.0969 4.5969 15.2497 4.74967C15.4025 4.90245 15.4788 5.0969 15.4788 5.33301C15.4788 5.56912 15.4025 5.76356 15.2497 5.91634L11.1663 9.99967L15.2497 14.083C15.4025 14.2358 15.4788 14.4302 15.4788 14.6663C15.4788 14.9025 15.4025 15.0969 15.2497 15.2497C15.0969 15.4025 14.9025 15.4788 14.6663 15.4788C14.4302 15.4788 14.2358 15.4025 14.083 15.2497L9.99967 11.1663Z" fill="white"/>
</svg>
