<svg width="50" height="50" viewBox="0 0 50 50" fill="none" xmlns="http://www.w3.org/2000/svg">
<path d="M39.5833 41.6673H10.4167C9.3116 41.6673 8.25179 41.2283 7.47039 40.4469C6.68899 39.6655 6.25 38.6057 6.25 37.5007V18.7507C6.25 17.6456 6.68899 16.5858 7.47039 15.8044C8.25179 15.023 9.3116 14.584 10.4167 14.584H39.5833C40.6884 14.584 41.7482 15.023 42.5296 15.8044C43.311 16.5858 43.75 17.6456 43.75 18.7507V37.5007C43.75 38.6057 43.311 39.6655 42.5296 40.4469C41.7482 41.2283 40.6884 41.6673 39.5833 41.6673Z" stroke="white" stroke-width="2"/>
<path d="M34.3776 29.1673C34.1013 29.1673 33.8364 29.0576 33.641 28.8622C33.4457 28.6669 33.3359 28.4019 33.3359 28.1257C33.3359 27.8494 33.4457 27.5844 33.641 27.3891C33.8364 27.1937 34.1013 27.084 34.3776 27.084C34.6539 27.084 34.9188 27.1937 35.1142 27.3891C35.3095 27.5844 35.4193 27.8494 35.4193 28.1257C35.4193 28.4019 35.3095 28.6669 35.1142 28.8622C34.9188 29.0576 34.6539 29.1673 34.3776 29.1673Z" stroke="white" stroke-width="2" stroke-linecap="round" stroke-linejoin="round"/>
<path d="M37.5 14.5837V11.6733C37.4998 11.0348 37.3529 10.4048 37.0705 9.83211C36.7882 9.25938 36.378 8.75921 35.8716 8.37022C35.3653 7.98123 34.7763 7.71382 34.1501 7.58865C33.524 7.46348 32.8774 7.4839 32.2604 7.64832L9.34375 13.7587C8.45636 13.9952 7.67196 14.5182 7.11248 15.2465C6.553 15.9748 6.2498 16.8675 6.25 17.7858V18.7504" stroke="white" stroke-width="2"/>
</svg>
