<svg width="56" height="56" viewBox="0 0 56 56" fill="none" xmlns="http://www.w3.org/2000/svg">
<g filter="url(#filter0_i_3155_2970)">
<path d="M0 28C0 12.536 12.536 0 28 0C43.464 0 56 12.536 56 28C56 43.464 43.464 56 28 56C12.536 56 0 43.464 0 28Z" fill="white" fill-opacity="0.1"/>
<g clip-path="url(#clip0_3155_2970)">
<path fill-rule="evenodd" clip-rule="evenodd" d="M33.9062 38.125C38.1081 38.125 41.5 36.4375 41.5 33.9062V17.875C41.5 16.1875 38.125 14.5 33.9062 14.5C29.6875 14.5 26.3125 16.1875 26.3125 17.875V23.7812C28.2869 24.6081 29.9744 25.9919 31.1725 27.7469C31.9994 27.9089 32.9106 27.9983 33.9062 27.9983C36.1169 27.9983 37.9563 27.5579 39.2725 26.8407C39.4594 26.738 39.6413 26.6265 39.8176 26.5066V28.8353C39.8176 29.2319 39.502 29.8478 38.4642 30.4148C37.4584 30.9632 35.9161 31.3666 33.9079 31.3666C33.5063 31.3666 33.1238 31.3514 32.7604 31.321C32.8954 31.8756 32.9854 32.4438 33.0304 33.0254C33.3151 33.0411 33.6076 33.049 33.9079 33.049C36.1186 33.049 37.9579 32.6086 39.2742 31.8914C39.4611 31.7887 39.6429 31.6772 39.8192 31.5572V33.886C39.8192 34.2843 39.5678 34.8749 38.4844 35.4587C37.4179 36.0325 35.8182 36.4172 33.9113 36.4172C33.5232 36.4172 33.1474 36.4015 32.7841 36.37C32.6543 36.9309 32.48 37.4805 32.2626 38.0136C32.7936 38.0732 33.3426 38.1031 33.9096 38.1031L33.9062 38.125ZM38.4625 25.3675C39.5003 24.8005 39.8159 24.1846 39.8159 23.788V21.4592C39.6415 21.5785 39.4598 21.6899 39.2708 21.7934C37.9579 22.5106 36.1152 22.951 33.9046 22.951C31.6939 22.951 29.8546 22.5106 28.5383 21.7934C28.3514 21.6907 28.1696 21.5792 27.9932 21.4592V23.788C27.9932 24.1846 28.3088 24.8005 29.3466 25.3658C30.3524 25.9143 31.8948 26.3176 33.9029 26.3176C35.911 26.3176 37.4466 25.9143 38.4591 25.3658L38.4625 25.3675ZM28 18.7188C28 18.2327 28.2109 17.7653 28.6041 17.4801C28.8184 17.3249 29.0513 17.1696 29.2353 17.0852C29.6959 16.8726 32.0027 16.1858 33.9096 16.1858C35.8165 16.1858 37.4703 16.5689 38.584 17.0852C38.7933 17.1814 39.0244 17.3316 39.2286 17.4801C39.6184 17.7619 39.8192 18.226 39.8192 18.7069V18.7171C39.8192 19.1136 39.5037 19.7296 38.4659 20.2966C37.4601 20.845 35.9177 21.2483 33.9096 21.2483C31.9015 21.2483 30.3659 20.8433 29.3534 20.2966C28.3156 19.7312 28 19.1136 28 18.7188Z" fill="white"/>
<path fill-rule="evenodd" clip-rule="evenodd" d="M29.6875 33.9062C29.6875 38.1081 26.2956 41.5 22.0938 41.5C17.8919 41.5 14.5 38.1081 14.5 33.9062C14.5 29.7044 17.8919 26.3125 22.0938 26.3125C26.2956 26.3125 29.6875 29.7044 29.6875 33.9062ZM28 33.9062C28 37.1631 25.3506 39.8125 22.0938 39.8125C18.8369 39.8125 16.1875 37.1631 16.1875 33.9062C16.1875 30.6494 18.8369 28 22.0938 28C25.3506 28 28 30.6494 28 33.9062Z" fill="white"/>
</g>
</g>
<defs>
<filter id="filter0_i_3155_2970" x="0" y="-2" width="56" height="58" filterUnits="userSpaceOnUse" color-interpolation-filters="sRGB">
<feFlood flood-opacity="0" result="BackgroundImageFix"/>
<feBlend mode="normal" in="SourceGraphic" in2="BackgroundImageFix" result="shape"/>
<feColorMatrix in="SourceAlpha" type="matrix" values="0 0 0 0 0 0 0 0 0 0 0 0 0 0 0 0 0 0 127 0" result="hardAlpha"/>
<feOffset dy="-2"/>
<feGaussianBlur stdDeviation="2"/>
<feComposite in2="hardAlpha" operator="arithmetic" k2="-1" k3="1"/>
<feColorMatrix type="matrix" values="0 0 0 0 0.815686 0 0 0 0 0.0352941 0 0 0 0 0.152941 0 0 0 1 0"/>
<feBlend mode="normal" in2="shape" result="effect1_innerShadow_3155_2970"/>
</filter>
<clipPath id="clip0_3155_2970">
<rect width="27" height="27" fill="white" transform="translate(14.5 14.5)"/>
</clipPath>
</defs>
</svg>
