<svg width="18" height="18" viewBox="0 0 18 18" fill="none" xmlns="http://www.w3.org/2000/svg">
<path d="M9 2.25C9 2.25 4.3605 6.255 1.76775 8.424C1.68521 8.49586 1.61872 8.58427 1.57259 8.68351C1.52646 8.78275 1.50173 8.89058 1.5 9C1.5 9.19891 1.57902 9.38968 1.71967 9.53033C1.86032 9.67098 2.05109 9.75 2.25 9.75H3.75V15C3.75 15.1989 3.82902 15.3897 3.96967 15.5303C4.11032 15.671 4.30109 15.75 4.5 15.75H6.75C6.94891 15.75 7.13968 15.671 7.28033 15.5303C7.42098 15.3897 7.5 15.1989 7.5 15V12H10.5V15C10.5 15.1989 10.579 15.3897 10.7197 15.5303C10.8603 15.671 11.0511 15.75 11.25 15.75H13.5C13.6989 15.75 13.8897 15.671 14.0303 15.5303C14.171 15.3897 14.25 15.1989 14.25 15V9.75H15.75C15.9489 9.75 16.1397 9.67098 16.2803 9.53033C16.421 9.38968 16.5 9.19891 16.5 9C16.499 8.88849 16.4725 8.77868 16.4228 8.67888C16.373 8.57909 16.3012 8.49193 16.2127 8.424C13.638 6.255 9 2.25 9 2.25Z" fill="black"/>
</svg>
