<svg width="56" height="56" viewBox="0 0 56 56" fill="none" xmlns="http://www.w3.org/2000/svg">
<g filter="url(#filter0_i_3155_2985)">
<path d="M0 28C0 12.536 12.536 0 28 0C43.464 0 56 12.536 56 28C56 43.464 43.464 56 28 56C12.536 56 0 43.464 0 28Z" fill="white" fill-opacity="0.1"/>
<path d="M17.7816 31.1993C17.5399 31.2002 17.303 31.1286 17.0982 30.9928C16.8935 30.857 16.7295 30.6626 16.6251 30.4322C16.5208 30.2019 16.4805 29.9449 16.5088 29.6913C16.5372 29.4376 16.6331 29.1977 16.7854 28.9994L29.4306 15.233C29.5254 15.1173 29.6547 15.0391 29.7971 15.0113C29.9396 14.9834 30.0867 15.0076 30.2145 15.0798C30.3422 15.152 30.4429 15.2679 30.5001 15.4086C30.5573 15.5492 30.5675 15.7062 30.529 15.8538L28.0766 23.9787C28.0043 24.1832 27.98 24.4032 28.0059 24.6198C28.0317 24.8364 28.1069 25.0431 28.2249 25.2223C28.343 25.4014 28.5004 25.5477 28.6837 25.6484C28.867 25.7492 29.0707 25.8014 29.2773 25.8007H38.2184C38.4601 25.7998 38.697 25.8714 38.9018 26.0072C39.1065 26.143 39.2705 26.3374 39.3749 26.5678C39.4792 26.7982 39.5195 27.0551 39.4912 27.3087C39.4628 27.5624 39.3669 27.8023 39.2146 28.0006L26.5694 41.767C26.4746 41.8827 26.3453 41.9609 26.2029 41.9887C26.0604 42.0166 25.9133 41.9924 25.7855 41.9202C25.6578 41.848 25.5571 41.7321 25.4999 41.5914C25.4427 41.4508 25.4325 41.2938 25.471 41.1462L27.9234 33.0213C27.9957 32.8168 28.02 32.5968 27.9941 32.3802C27.9683 32.1636 27.8931 31.9569 27.7751 31.7777C27.657 31.5986 27.4996 31.4523 27.3163 31.3516C27.133 31.2508 26.9293 31.1986 26.7227 31.1993H17.7816Z" stroke="white" stroke-width="2" stroke-linecap="round" stroke-linejoin="round"/>
<path d="M17.7816 31.1993C17.5399 31.2002 17.303 31.1286 17.0982 30.9928C16.8935 30.857 16.7295 30.6626 16.6251 30.4322C16.5208 30.2019 16.4805 29.9449 16.5088 29.6913C16.5372 29.4376 16.6331 29.1977 16.7854 28.9994L29.4306 15.233C29.5254 15.1173 29.6547 15.0391 29.7971 15.0113C29.9396 14.9834 30.0867 15.0076 30.2145 15.0798C30.3422 15.152 30.4429 15.2679 30.5001 15.4086C30.5573 15.5492 30.5675 15.7062 30.529 15.8538L28.0766 23.9787C28.0043 24.1832 27.98 24.4032 28.0059 24.6198C28.0317 24.8364 28.1069 25.0431 28.2249 25.2223C28.343 25.4014 28.5004 25.5477 28.6837 25.6484C28.867 25.7492 29.0707 25.8014 29.2773 25.8007H38.2184C38.4601 25.7998 38.697 25.8714 38.9018 26.0072C39.1065 26.143 39.2705 26.3374 39.3749 26.5678C39.4792 26.7982 39.5195 27.0551 39.4912 27.3087C39.4628 27.5624 39.3669 27.8023 39.2146 28.0006L26.5694 41.767C26.4746 41.8827 26.3453 41.9609 26.2029 41.9887C26.0604 42.0166 25.9133 41.9924 25.7855 41.9202C25.6578 41.848 25.5571 41.7321 25.4999 41.5914C25.4427 41.4508 25.4325 41.2938 25.471 41.1462L27.9234 33.0213C27.9957 32.8168 28.02 32.5968 27.9941 32.3802C27.9683 32.1636 27.8931 31.9569 27.7751 31.7777C27.657 31.5986 27.4996 31.4523 27.3163 31.3516C27.133 31.2508 26.9293 31.1986 26.7227 31.1993H17.7816Z" stroke="white" stroke-width="2" stroke-linecap="round" stroke-linejoin="round"/>
</g>
<defs>
<filter id="filter0_i_3155_2985" x="0" y="-2" width="56" height="58" filterUnits="userSpaceOnUse" color-interpolation-filters="sRGB">
<feFlood flood-opacity="0" result="BackgroundImageFix"/>
<feBlend mode="normal" in="SourceGraphic" in2="BackgroundImageFix" result="shape"/>
<feColorMatrix in="SourceAlpha" type="matrix" values="0 0 0 0 0 0 0 0 0 0 0 0 0 0 0 0 0 0 127 0" result="hardAlpha"/>
<feOffset dy="-2"/>
<feGaussianBlur stdDeviation="2"/>
<feComposite in2="hardAlpha" operator="arithmetic" k2="-1" k3="1"/>
<feColorMatrix type="matrix" values="0 0 0 0 0.815686 0 0 0 0 0.0352941 0 0 0 0 0.152941 0 0 0 1 0"/>
<feBlend mode="normal" in2="shape" result="effect1_innerShadow_3155_2985"/>
</filter>
</defs>
</svg>
