<svg width="18" height="11" viewBox="0 0 18 11" fill="none" xmlns="http://www.w3.org/2000/svg">
<path d="M0 1.75C0 0.792969 0.710938 0 1.58594 0H15.9141C16.7891 0 17.5 0.792969 17.5 1.75V8.75C17.5 9.70703 16.7891 10.5 15.9141 10.5H1.58594C0.710938 10.5 0 9.70703 0 8.75V1.75ZM7.24609 2.625H6.39844L5.63281 7.71094H6.48047L7.24609 2.625ZM9.40625 6.64453L8.80469 2.625H7.875L8.75 7.71094H9.78906L12.1953 2.625H11.2656L9.46094 6.64453H9.40625ZM12.0586 7.71094H15.0938L15.2031 6.94531H13.0156L13.2344 5.55078H15.2305L15.3672 4.78516H13.3438L13.5625 3.39062H15.7227L15.832 2.625H12.8242L12.0586 7.71094ZM2.76172 2.625L1.99609 7.71094H4.86719L4.97656 6.94531H2.95312L3.60938 2.625H2.76172Z" fill="#B7BECC"/>
<path d="M0 1.75C0 0.792969 0.710938 0 1.58594 0H15.9141C16.7891 0 17.5 0.792969 17.5 1.75V8.75C17.5 9.70703 16.7891 10.5 15.9141 10.5H1.58594C0.710938 10.5 0 9.70703 0 8.75V1.75ZM7.24609 2.625H6.39844L5.63281 7.71094H6.48047L7.24609 2.625ZM9.40625 6.64453L8.80469 2.625H7.875L8.75 7.71094H9.78906L12.1953 2.625H11.2656L9.46094 6.64453H9.40625ZM12.0586 7.71094H15.0938L15.2031 6.94531H13.0156L13.2344 5.55078H15.2305L15.3672 4.78516H13.3438L13.5625 3.39062H15.7227L15.832 2.625H12.8242L12.0586 7.71094ZM2.76172 2.625L1.99609 7.71094H4.86719L4.97656 6.94531H2.95312L3.60938 2.625H2.76172Z" fill="url(#paint0_linear_3153_2025)"/>
<path d="M0 1.75C0 0.792969 0.710938 0 1.58594 0H15.9141C16.7891 0 17.5 0.792969 17.5 1.75V8.75C17.5 9.70703 16.7891 10.5 15.9141 10.5H1.58594C0.710938 10.5 0 9.70703 0 8.75V1.75ZM7.24609 2.625H6.39844L5.63281 7.71094H6.48047L7.24609 2.625ZM9.40625 6.64453L8.80469 2.625H7.875L8.75 7.71094H9.78906L12.1953 2.625H11.2656L9.46094 6.64453H9.40625ZM12.0586 7.71094H15.0938L15.2031 6.94531H13.0156L13.2344 5.55078H15.2305L15.3672 4.78516H13.3438L13.5625 3.39062H15.7227L15.832 2.625H12.8242L12.0586 7.71094ZM2.76172 2.625L1.99609 7.71094H4.86719L4.97656 6.94531H2.95312L3.60938 2.625H2.76172Z" fill="#D00927"/>
<defs>
<linearGradient id="paint0_linear_3153_2025" x1="8.75" y1="10.5" x2="8.75" y2="0" gradientUnits="userSpaceOnUse">
<stop stop-color="#FFCE56"/>
<stop offset="0.668269"/>
</linearGradient>
</defs>
</svg>
