<svg width="56" height="56" viewBox="0 0 56 56" fill="none" xmlns="http://www.w3.org/2000/svg">
<g filter="url(#filter0_i_3155_2978)">
<path d="M0 28C0 12.536 12.536 0 28 0C43.464 0 56 12.536 56 28C56 43.464 43.464 56 28 56C12.536 56 0 43.464 0 28Z" fill="white" fill-opacity="0.1"/>
<path d="M19.8359 37.334V35.0007H36.1693V37.334H19.8359ZM19.8359 33.2507L18.3484 23.8882C18.3096 23.8882 18.2656 23.8932 18.2166 23.9033C18.1676 23.9134 18.1241 23.9181 18.0859 23.9173C17.5998 23.9173 17.1868 23.747 16.8469 23.4063C16.5071 23.0657 16.3367 22.6527 16.3359 22.1673C16.3352 21.682 16.5055 21.269 16.8469 20.9283C17.1884 20.5877 17.6014 20.4173 18.0859 20.4173C18.5705 20.4173 18.9839 20.5877 19.3261 20.9283C19.6683 21.269 19.8383 21.682 19.8359 22.1673C19.8359 22.3034 19.8212 22.4298 19.7916 22.5465C19.7621 22.6632 19.7282 22.7701 19.6901 22.8673L23.3359 24.5007L26.9818 19.5132C26.7679 19.3576 26.5929 19.1534 26.4568 18.9007C26.3207 18.6479 26.2526 18.3757 26.2526 18.084C26.2526 17.5979 26.4229 17.1845 26.7636 16.8438C27.1043 16.5032 27.5173 16.3332 28.0026 16.334C28.4879 16.3348 28.9013 16.5051 29.2428 16.845C29.5842 17.1849 29.7542 17.5979 29.7526 18.084C29.7526 18.3757 29.6846 18.6479 29.5484 18.9007C29.4123 19.1534 29.2373 19.3576 29.0234 19.5132L32.6693 24.5007L36.3151 22.8673C36.2762 22.7701 36.242 22.6632 36.2124 22.5465C36.1829 22.4298 36.1685 22.3034 36.1693 22.1673C36.1693 21.6812 36.3396 21.2678 36.6803 20.9272C37.0209 20.5865 37.4339 20.4165 37.9193 20.4173C38.4046 20.4181 38.818 20.5884 39.1594 20.9283C39.5009 21.2682 39.6708 21.6812 39.6693 22.1673C39.6677 22.6534 39.4978 23.0668 39.1594 23.4075C38.8211 23.7482 38.4077 23.9181 37.9193 23.9173C37.8804 23.9173 37.8368 23.9127 37.7886 23.9033C37.7404 23.894 37.6964 23.8889 37.6568 23.8882L36.1693 33.2507H19.8359ZM21.8193 30.9173H34.1859L34.9443 26.0465L31.8818 27.3882L28.0026 22.0507L24.1234 27.3882L21.0609 26.0465L21.8193 30.9173Z" fill="white"/>
</g>
<defs>
<filter id="filter0_i_3155_2978" x="0" y="-2" width="56" height="58" filterUnits="userSpaceOnUse" color-interpolation-filters="sRGB">
<feFlood flood-opacity="0" result="BackgroundImageFix"/>
<feBlend mode="normal" in="SourceGraphic" in2="BackgroundImageFix" result="shape"/>
<feColorMatrix in="SourceAlpha" type="matrix" values="0 0 0 0 0 0 0 0 0 0 0 0 0 0 0 0 0 0 127 0" result="hardAlpha"/>
<feOffset dy="-2"/>
<feGaussianBlur stdDeviation="2"/>
<feComposite in2="hardAlpha" operator="arithmetic" k2="-1" k3="1"/>
<feColorMatrix type="matrix" values="0 0 0 0 0.815686 0 0 0 0 0.0352941 0 0 0 0 0.152941 0 0 0 1 0"/>
<feBlend mode="normal" in2="shape" result="effect1_innerShadow_3155_2978"/>
</filter>
</defs>
</svg>
