<svg width="34" height="40" viewBox="0 0 34 40" fill="none" xmlns="http://www.w3.org/2000/svg">
<path d="M2.78316 23.799C2.44687 23.8002 2.11716 23.6994 1.83233 23.5083C1.5475 23.3172 1.31925 23.0437 1.17409 22.7194C1.02892 22.3952 0.972816 22.0336 1.01228 21.6766C1.05174 21.3196 1.18516 20.982 1.39702 20.7028L18.9904 1.32786C19.1223 1.16504 19.3022 1.05501 19.5004 1.01584C19.6985 0.976662 19.9033 1.01067 20.081 1.11228C20.2587 1.21388 20.3989 1.37705 20.4784 1.575C20.5579 1.77295 20.5721 1.99392 20.5187 2.20164L17.1066 13.6367C17.006 13.9245 16.9722 14.2341 17.0082 14.5389C17.0441 14.8438 17.1487 15.1348 17.3129 15.3869C17.4772 15.6391 17.6962 15.8449 17.9512 15.9866C18.2063 16.1284 18.4896 16.202 18.7771 16.201H31.2168C31.5531 16.1998 31.8828 16.3006 32.1677 16.4917C32.4525 16.6828 32.6808 16.9563 32.8259 17.2806C32.9711 17.6048 33.0272 17.9664 32.9877 18.3234C32.9483 18.6804 32.8148 19.018 32.603 19.2972L15.0096 38.6721C14.8777 38.835 14.6978 38.945 14.4996 38.9842C14.3015 39.0233 14.0967 38.9893 13.919 38.8877C13.7413 38.7861 13.6011 38.6229 13.5216 38.425C13.4421 38.227 13.4279 38.0061 13.4813 37.7984L16.8934 26.3633C16.994 26.0755 17.0278 25.7659 16.9918 25.4611C16.9559 25.1562 16.8513 24.8652 16.6871 24.6131C16.5228 24.3609 16.3038 24.1551 16.0488 24.0133C15.7937 23.8716 15.5104 23.798 15.2229 23.799H2.78316Z" stroke="white" stroke-width="2" stroke-linecap="round" stroke-linejoin="round"/>
</svg>
