<svg width="13" height="14" viewBox="0 0 13 14" fill="none" xmlns="http://www.w3.org/2000/svg">
<path d="M0.164062 2.31508V6.30748C0.164062 6.76882 0.33263 7.16806 0.669766 7.5052L5.35418 12.1896C5.69131 12.5267 6.09055 12.6953 6.5519 12.6953C6.99549 12.6953 7.39473 12.5267 7.74961 12.1896L11.3162 8.62307C11.6355 8.28593 11.7952 7.88669 11.7952 7.42535C11.7952 6.98175 11.6355 6.58251 11.3162 6.22763L6.63174 1.54322C6.29461 1.20609 5.8865 1.03752 5.40741 1.03752H1.44163C1.08675 1.05526 0.785102 1.17947 0.536686 1.41014C0.306014 1.65856 0.181806 1.96021 0.164062 2.31508ZM3.14505 3.1668C3.39347 3.1668 3.59752 3.24664 3.75722 3.40634C3.91691 3.56604 3.99676 3.77009 3.99676 4.01851C3.99676 4.26692 3.91691 4.47098 3.75722 4.63067C3.59752 4.79037 3.39347 4.87022 3.14505 4.87022C2.89664 4.87022 2.69258 4.79037 2.53288 4.63067C2.37319 4.47098 2.29334 4.26692 2.29334 4.01851C2.29334 3.77009 2.37319 3.56604 2.53288 3.40634C2.69258 3.24664 2.89664 3.1668 3.14505 3.1668Z" fill="#B7BECC"/>
<path d="M0.164062 2.31508V6.30748C0.164062 6.76882 0.33263 7.16806 0.669766 7.5052L5.35418 12.1896C5.69131 12.5267 6.09055 12.6953 6.5519 12.6953C6.99549 12.6953 7.39473 12.5267 7.74961 12.1896L11.3162 8.62307C11.6355 8.28593 11.7952 7.88669 11.7952 7.42535C11.7952 6.98175 11.6355 6.58251 11.3162 6.22763L6.63174 1.54322C6.29461 1.20609 5.8865 1.03752 5.40741 1.03752H1.44163C1.08675 1.05526 0.785102 1.17947 0.536686 1.41014C0.306014 1.65856 0.181806 1.96021 0.164062 2.31508ZM3.14505 3.1668C3.39347 3.1668 3.59752 3.24664 3.75722 3.40634C3.91691 3.56604 3.99676 3.77009 3.99676 4.01851C3.99676 4.26692 3.91691 4.47098 3.75722 4.63067C3.59752 4.79037 3.39347 4.87022 3.14505 4.87022C2.89664 4.87022 2.69258 4.79037 2.53288 4.63067C2.37319 4.47098 2.29334 4.26692 2.29334 4.01851C2.29334 3.77009 2.37319 3.56604 2.53288 3.40634C2.69258 3.24664 2.89664 3.1668 3.14505 3.1668Z" fill="url(#paint0_linear_3153_2040)"/>
<path d="M0.164062 2.31508V6.30748C0.164062 6.76882 0.33263 7.16806 0.669766 7.5052L5.35418 12.1896C5.69131 12.5267 6.09055 12.6953 6.5519 12.6953C6.99549 12.6953 7.39473 12.5267 7.74961 12.1896L11.3162 8.62307C11.6355 8.28593 11.7952 7.88669 11.7952 7.42535C11.7952 6.98175 11.6355 6.58251 11.3162 6.22763L6.63174 1.54322C6.29461 1.20609 5.8865 1.03752 5.40741 1.03752H1.44163C1.08675 1.05526 0.785102 1.17947 0.536686 1.41014C0.306014 1.65856 0.181806 1.96021 0.164062 2.31508ZM3.14505 3.1668C3.39347 3.1668 3.59752 3.24664 3.75722 3.40634C3.91691 3.56604 3.99676 3.77009 3.99676 4.01851C3.99676 4.26692 3.91691 4.47098 3.75722 4.63067C3.59752 4.79037 3.39347 4.87022 3.14505 4.87022C2.89664 4.87022 2.69258 4.79037 2.53288 4.63067C2.37319 4.47098 2.29334 4.26692 2.29334 4.01851C2.29334 3.77009 2.37319 3.56604 2.53288 3.40634C2.69258 3.24664 2.89664 3.1668 3.14505 3.1668Z" fill="#D00927"/>
<defs>
<linearGradient id="paint0_linear_3153_2040" x1="5.97965" y1="12.6953" x2="5.97965" y2="1.03752" gradientUnits="userSpaceOnUse">
<stop stop-color="#FFCE56"/>
<stop offset="0.668269"/>
</linearGradient>
</defs>
</svg>
