<svg width="40" height="42" viewBox="0 0 40 42" fill="none" xmlns="http://www.w3.org/2000/svg">
<path d="M3.08203 19.75V36.4167C3.08203 37.5217 3.52102 38.5815 4.30242 39.3629C5.08382 40.1443 6.14363 40.5833 7.2487 40.5833H32.2487C33.3538 40.5833 34.4136 40.1443 35.195 39.3629C35.9764 38.5815 36.4154 37.5217 36.4154 36.4167V19.75" stroke="white" stroke-width="2" stroke-linecap="round" stroke-linejoin="round"/>
<path d="M19.75 8.29167C19.75 6.3578 18.9818 4.50313 17.6143 3.13568C16.2469 1.76823 14.3922 1 12.4583 1C11.077 1 9.75224 1.54873 8.77549 2.52549C7.79873 3.50224 7.25 4.827 7.25 6.20833C7.25 7.58967 7.79873 8.91443 8.77549 9.89118C9.75224 10.8679 11.077 11.4167 12.4583 11.4167H19.75M19.75 8.29167V11.4167M19.75 8.29167C19.75 6.3578 20.5182 4.50313 21.8857 3.13568C23.2531 1.76823 25.1078 1 27.0417 1C28.423 1 29.7478 1.54873 30.7245 2.52549C31.7013 3.50224 32.25 4.827 32.25 6.20833C32.25 6.8923 32.1153 7.56957 31.8535 8.20148C31.5918 8.83338 31.2082 9.40754 30.7245 9.89118C30.2409 10.3748 29.6667 10.7585 29.0348 11.0202C28.4029 11.282 27.7256 11.4167 27.0417 11.4167H19.75" stroke="white" stroke-width="2" stroke-linejoin="round"/>
<path d="M19.75 19.7503V40.5837M1 11.417H38.5V19.7503H1V11.417Z" stroke="white" stroke-width="2" stroke-linecap="round" stroke-linejoin="round"/>
</svg>
