<svg width="17" height="17" viewBox="0 0 17 17" fill="none" xmlns="http://www.w3.org/2000/svg">
<path d="M2.14013 11.0648C2.08346 12.7789 2.3668 14.1389 2.61471 14.3869C2.86263 14.6348 4.22971 14.9252 5.9368 14.8614L2.14013 11.0648ZM9.26596 2.32395C7.61555 2.62145 5.87305 3.27311 4.5768 4.57645C3.28055 5.87978 2.6218 7.6152 2.3243 9.26561L7.72888 14.6702C9.38638 14.3798 11.1218 13.721 12.418 12.4177C13.7143 11.1144 14.373 9.37895 14.6705 7.72853L9.26596 2.32395ZM10.4843 7.50895L7.5093 10.4839C7.23305 10.7602 6.79388 10.7602 6.51763 10.4839C6.24138 10.2077 6.24138 9.76853 6.51763 9.49228L9.49263 6.51728C9.76888 6.24103 10.208 6.24103 10.4843 6.51728C10.7605 6.79353 10.7605 7.2327 10.4843 7.50895ZM14.8618 5.93645C14.9185 4.22228 14.6351 2.86228 14.3872 2.61436C14.1393 2.36645 12.7722 2.07603 11.0651 2.13978L14.8618 5.93645Z" fill="#D00927"/>
</svg>
