<svg width="20" height="20" viewBox="0 0 20 20" fill="none" xmlns="http://www.w3.org/2000/svg">
<path d="M9.25 3C5.1175 3 1.75 6.3675 1.75 10.5C1.75 14.6325 5.1175 18 9.25 18C13.3825 18 16.75 14.6325 16.75 10.5C16.75 6.3675 13.3825 3 9.25 3ZM11.7475 14.25L9.25 12.585L6.7525 14.25L7.585 11.3325L5.5 9.4575L8.1175 9.2475L9.25 6.75L10.3825 9.2475L13 9.4575L10.915 11.3325L11.7475 14.25Z" fill="#B7BECC"/>
<path d="M9.25 3C5.1175 3 1.75 6.3675 1.75 10.5C1.75 14.6325 5.1175 18 9.25 18C13.3825 18 16.75 14.6325 16.75 10.5C16.75 6.3675 13.3825 3 9.25 3ZM11.7475 14.25L9.25 12.585L6.7525 14.25L7.585 11.3325L5.5 9.4575L8.1175 9.2475L9.25 6.75L10.3825 9.2475L13 9.4575L10.915 11.3325L11.7475 14.25Z" fill="url(#paint0_linear_3153_2036)"/>
<path d="M9.25 3C5.1175 3 1.75 6.3675 1.75 10.5C1.75 14.6325 5.1175 18 9.25 18C13.3825 18 16.75 14.6325 16.75 10.5C16.75 6.3675 13.3825 3 9.25 3ZM11.7475 14.25L9.25 12.585L6.7525 14.25L7.585 11.3325L5.5 9.4575L8.1175 9.2475L9.25 6.75L10.3825 9.2475L13 9.4575L10.915 11.3325L11.7475 14.25Z" fill="#D00927"/>
<defs>
<linearGradient id="paint0_linear_3153_2036" x1="9.25" y1="3" x2="9.25" y2="18" gradientUnits="userSpaceOnUse">
<stop offset="0.331731"/>
<stop offset="1" stop-color="#FFCE56"/>
</linearGradient>
</defs>
</svg>
