<svg width="56" height="56" viewBox="0 0 56 56" fill="none" xmlns="http://www.w3.org/2000/svg">
<rect x="0.5" y="0.5" width="55" height="55" rx="27.5" fill="black" fill-opacity="0.5"/>
<rect x="0.5" y="0.5" width="55" height="55" rx="27.5" stroke="url(#paint0_linear_3166_2902)"/>
<g clip-path="url(#clip0_3166_2902)">
<path d="M16.9611 28.1971C16.88 28.1973 16.7998 28.2134 16.7251 28.2446C16.6503 28.2757 16.5824 28.3213 16.5252 28.3788C16.468 28.4362 16.4227 28.5043 16.3919 28.5792C16.3611 28.6541 16.3453 28.7344 16.3455 28.8154V39.0295C16.3455 39.371 16.6209 39.6478 16.9611 39.6478H34.7365C34.8999 39.6471 35.0563 39.5816 35.1715 39.4657C35.2866 39.3498 35.3511 39.1929 35.3508 39.0295V28.8154C35.3511 28.652 35.2866 28.4951 35.1715 28.3792C35.0563 28.2633 34.8999 28.1978 34.7365 28.1971H16.9611ZM34.7365 26.3449C36.0946 26.3449 37.1962 27.4506 37.1962 28.8154V39.0295C37.1962 40.393 36.0946 41.5 34.7365 41.5H16.9611C16.6372 41.4995 16.3167 41.4351 16.0177 41.3107C15.7187 41.1862 15.4472 41.0041 15.2187 40.7747C14.9901 40.5452 14.809 40.273 14.6857 39.9736C14.5624 39.6741 14.4993 39.3533 14.5 39.0295V28.8154C14.5 27.4506 15.6016 26.3449 16.9611 26.3449H34.7365ZM41.5 31.6315V36.3322C41.5 36.9195 40.9641 37.3582 40.3917 37.2394L38.4571 36.8398V34.9471L39.6546 35.1955V32.7763L38.4571 33.0315V31.1374L40.3849 30.7257C40.5195 30.6971 40.6589 30.699 40.7927 30.7312C40.9265 30.7634 41.0514 30.8251 41.1583 30.9118C41.2652 30.9985 41.3514 31.108 41.4105 31.2323C41.4696 31.3566 41.5002 31.4939 41.5 31.6315ZM21.2676 32.2336C19.9081 32.2336 18.8065 33.3406 18.8065 34.7041C18.8065 36.0676 19.9081 37.1746 21.2676 37.1746C22.627 37.1746 23.7286 36.0676 23.7286 34.7041C23.7286 33.3406 22.627 32.2336 21.2676 32.2336ZM21.2676 33.4688C21.9466 33.4688 22.4974 34.0224 22.4974 34.7041C22.4978 34.866 22.4662 35.0263 22.4046 35.176C22.343 35.3257 22.2525 35.4617 22.1383 35.5764C22.0241 35.6911 21.8884 35.7822 21.739 35.8445C21.5896 35.9068 21.4294 35.939 21.2676 35.9394C21.1056 35.9392 20.9452 35.9071 20.7957 35.8449C20.6461 35.7827 20.5103 35.6916 20.3959 35.5769C20.2816 35.4622 20.191 35.3261 20.1293 35.1763C20.0676 35.0265 20.036 34.8661 20.0364 34.7041C20.0364 34.021 20.5872 33.4688 21.2676 33.4688ZM31.6437 14.635C32.3317 14.6361 33.0129 14.7727 33.6482 15.0371C34.2834 15.3015 34.8604 15.6884 35.3461 16.1759C35.8317 16.6633 36.2166 17.2416 36.4787 17.8779C36.7408 18.5141 36.875 19.1957 36.8736 19.8838C36.8752 20.572 36.7411 21.2538 36.4791 21.8902C36.2171 22.5265 35.8322 23.105 35.3465 23.5926C34.8609 24.0802 34.2838 24.4673 33.6485 24.7317C33.0131 24.9962 32.3319 25.1329 31.6437 25.134C30.9556 25.1327 30.2745 24.9959 29.6393 24.7314C29.004 24.4668 28.4272 24.0797 27.9416 23.5921C27.4561 23.1046 27.0714 22.5261 26.8094 21.8898C26.5475 21.2536 26.4135 20.5719 26.4151 19.8838C26.4137 19.1958 26.5478 18.5143 26.8098 17.8782C27.0718 17.242 27.4566 16.6637 27.9421 16.1763C28.4277 15.6889 29.0044 15.3019 29.6396 15.0375C30.2747 14.773 30.9557 14.6362 31.6437 14.635ZM20.0364 14.5C20.7246 14.5011 21.4058 14.6377 22.0412 14.9022C22.6765 15.1667 23.2536 15.5538 23.7392 16.0413C24.2249 16.5289 24.6098 17.1074 24.8718 17.7438C25.1338 18.3802 25.2679 19.0619 25.2663 19.7502C25.2677 20.4384 25.1335 21.1201 24.8713 21.7564C24.6091 22.3927 24.2241 22.9711 23.7383 23.4586C23.2525 23.946 22.6754 24.333 22.0399 24.5973C21.4045 24.8616 20.7232 24.9981 20.035 24.999C18.646 24.9961 17.3151 24.4417 16.3348 23.4576C15.3546 22.4736 14.8053 21.1405 14.8078 19.7515C14.806 19.0634 14.9398 18.3817 15.2016 17.7454C15.4634 17.109 15.848 16.5304 16.3334 16.0428C16.8188 15.5551 17.3956 15.1678 18.0307 14.9031C18.6658 14.6384 19.3483 14.5014 20.0364 14.5ZM31.645 16.4872C31.1998 16.4879 30.7591 16.5763 30.3481 16.7475C29.9371 16.9186 29.5638 17.169 29.2496 17.4844C28.9354 17.7999 28.6865 18.1741 28.517 18.5858C28.3475 18.9975 28.2608 19.4386 28.2619 19.8838C28.2608 20.329 28.3475 20.7701 28.517 21.1818C28.6865 21.5935 28.9354 21.9677 29.2496 22.2832C29.5638 22.5986 29.9371 22.849 30.3481 23.0201C30.7591 23.1913 31.1998 23.2797 31.645 23.2804C32.0903 23.2799 32.5312 23.1916 32.9424 23.0205C33.3535 22.8495 33.727 22.5991 34.0413 22.2836C34.3556 21.9682 34.6047 21.5939 34.7742 21.1821C34.9438 20.7703 35.0305 20.3291 35.0295 19.8838C35.0305 19.4385 34.9438 18.9973 34.7742 18.5855C34.6047 18.1737 34.3556 17.7994 34.0413 17.484C33.727 17.1685 33.3535 16.9181 32.9424 16.7471C32.5312 16.576 32.0903 16.4877 31.645 16.4872ZM20.0377 16.3522C19.5922 16.3527 19.1511 16.4411 18.7397 16.6123C18.3284 16.7835 17.9548 17.0342 17.6405 17.3499C17.3261 17.6657 17.0771 18.0403 16.9077 18.4524C16.7383 18.8645 16.6518 19.3059 16.6533 19.7515C16.6522 20.1967 16.7389 20.6378 16.9083 21.0495C17.0778 21.4612 17.3268 21.8354 17.6409 22.1509C17.9551 22.4663 18.3284 22.7167 18.7394 22.8878C19.1504 23.059 19.5911 23.1474 20.0364 23.1481C20.4817 23.1476 20.9225 23.0593 21.3337 22.8882C21.7449 22.7172 22.1183 22.4668 22.4326 22.1513C22.747 21.8359 22.996 21.4616 23.1656 21.0498C23.3351 20.638 23.4219 20.1968 23.4208 19.7515C23.4222 19.3058 23.3357 18.8643 23.1662 18.4521C22.9968 18.0399 22.7476 17.6652 22.4331 17.3494C22.1186 17.0337 21.7449 16.7831 21.3334 16.6119C20.9219 16.4408 20.4807 16.3526 20.035 16.3522" fill="white"/>
</g>
<defs>
<linearGradient id="paint0_linear_3166_2902" x1="16.9635" y1="-6.2955e-07" x2="56" y2="56" gradientUnits="userSpaceOnUse">
<stop offset="0.336537" stop-color="white"/>
<stop offset="1" stop-color="#FBBD23"/>
</linearGradient>
<clipPath id="clip0_3166_2902">
<rect width="27" height="27" fill="white" transform="translate(14.5 14.5)"/>
</clipPath>
</defs>
</svg>
