<svg width="21" height="20" viewBox="0 0 21 20" fill="none" xmlns="http://www.w3.org/2000/svg">
<path d="M10.5 0C4.7145 0 0 4.49 0 10C0 15.51 4.7145 20 10.5 20C16.2855 20 21 15.51 21 10C21 4.49 16.2855 0 10.5 0ZM10.5 5C12.3165 5 13.65 6.27 13.65 8C13.65 9.73 12.3165 11 10.5 11C8.6835 11 7.35 9.73 7.35 8C7.35 6.27 8.6835 5 10.5 5ZM10.5 18C8.36007 17.9998 6.30133 17.2198 4.746 15.82C5.5965 14.16 7.3815 13 9.45 13H11.55C13.6185 13 15.393 14.16 16.2435 15.82C14.6931 17.2209 12.6371 18.0013 10.5 18Z" fill="#D00927"/>
</svg>
