<svg width="56" height="56" viewBox="0 0 56 56" fill="none" xmlns="http://www.w3.org/2000/svg">
<rect x="0.5" y="0.5" width="55" height="55" rx="27.5" fill="black" fill-opacity="0.5"/>
<rect x="0.5" y="0.5" width="55" height="55" rx="27.5" stroke="url(#paint0_linear_3166_2896)"/>
<path d="M19.832 37.334V35.0007H36.1654V37.334H19.832ZM19.832 33.2507L18.3445 23.8882C18.3056 23.8882 18.2617 23.8932 18.2127 23.9033C18.1637 23.9134 18.1201 23.9181 18.082 23.9173C17.5959 23.9173 17.1829 23.747 16.843 23.4063C16.5031 23.0657 16.3328 22.6527 16.332 22.1673C16.3313 21.682 16.5016 21.269 16.843 20.9283C17.1845 20.5877 17.5975 20.4173 18.082 20.4173C18.5666 20.4173 18.98 20.5877 19.3222 20.9283C19.6644 21.269 19.8344 21.682 19.832 22.1673C19.832 22.3034 19.8173 22.4298 19.7877 22.5465C19.7581 22.6632 19.7243 22.7701 19.6862 22.8673L23.332 24.5007L26.9779 19.5132C26.764 19.3576 26.589 19.1534 26.4529 18.9007C26.3168 18.6479 26.2487 18.3757 26.2487 18.084C26.2487 17.5979 26.419 17.1845 26.7597 16.8438C27.1004 16.5032 27.5134 16.3332 27.9987 16.334C28.484 16.3348 28.8974 16.5051 29.2389 16.845C29.5803 17.1849 29.7503 17.5979 29.7487 18.084C29.7487 18.3757 29.6806 18.6479 29.5445 18.9007C29.4084 19.1534 29.2334 19.3576 29.0195 19.5132L32.6654 24.5007L36.3112 22.8673C36.2723 22.7701 36.2381 22.6632 36.2085 22.5465C36.179 22.4298 36.1646 22.3034 36.1654 22.1673C36.1654 21.6812 36.3357 21.2678 36.6764 20.9272C37.017 20.5865 37.43 20.4165 37.9154 20.4173C38.4007 20.4181 38.8141 20.5884 39.1555 20.9283C39.497 21.2682 39.6669 21.6812 39.6654 22.1673C39.6638 22.6534 39.4939 23.0668 39.1555 23.4075C38.8172 23.7482 38.4038 23.9181 37.9154 23.9173C37.8765 23.9173 37.8329 23.9127 37.7847 23.9033C37.7365 23.894 37.6925 23.8889 37.6529 23.8882L36.1654 33.2507H19.832ZM21.8154 30.9173H34.182L34.9404 26.0465L31.8779 27.3882L27.9987 22.0507L24.1195 27.3882L21.057 26.0465L21.8154 30.9173Z" fill="white"/>
<defs>
<linearGradient id="paint0_linear_3166_2896" x1="16.9635" y1="-6.2955e-07" x2="56" y2="56" gradientUnits="userSpaceOnUse">
<stop offset="0.336537" stop-color="white"/>
<stop offset="1" stop-color="#FBBD23"/>
</linearGradient>
</defs>
</svg>
