<svg width="56" height="56" viewBox="0 0 56 56" fill="none" xmlns="http://www.w3.org/2000/svg">
<g filter="url(#filter0_i_3155_2992)">
<path d="M0 28C0 12.536 12.536 0 28 0C43.464 0 56 12.536 56 28C56 43.464 43.464 56 28 56C12.536 56 0 43.464 0 28Z" fill="white" fill-opacity="0.1"/>
<path d="M19 16.75H16.75V38.125C16.75 38.7437 17.2562 39.25 17.875 39.25H39.25V37H19V16.75Z" fill="white"/>
<path d="M31.8269 28.9004C32.2769 29.2379 32.9069 29.1929 33.3006 28.7991L38.9256 23.1741L37.3394 21.5879L32.4006 26.5266L28.6769 23.7366C28.2269 23.3991 27.5969 23.4441 27.2031 23.8379L20.4531 30.5879L22.0394 32.1741L28.1031 26.1104L31.8269 28.9004Z" fill="white"/>
</g>
<defs>
<filter id="filter0_i_3155_2992" x="0" y="-2" width="56" height="58" filterUnits="userSpaceOnUse" color-interpolation-filters="sRGB">
<feFlood flood-opacity="0" result="BackgroundImageFix"/>
<feBlend mode="normal" in="SourceGraphic" in2="BackgroundImageFix" result="shape"/>
<feColorMatrix in="SourceAlpha" type="matrix" values="0 0 0 0 0 0 0 0 0 0 0 0 0 0 0 0 0 0 127 0" result="hardAlpha"/>
<feOffset dy="-2"/>
<feGaussianBlur stdDeviation="2"/>
<feComposite in2="hardAlpha" operator="arithmetic" k2="-1" k3="1"/>
<feColorMatrix type="matrix" values="0 0 0 0 0.815686 0 0 0 0 0.0352941 0 0 0 0 0.152941 0 0 0 1 0"/>
<feBlend mode="normal" in2="shape" result="effect1_innerShadow_3155_2992"/>
</filter>
</defs>
</svg>
